<svg width="21" height="20" viewBox="0 0 21 20" fill="none" xmlns="http://www.w3.org/2000/svg">
<path d="M19.3353 8.64512C19.5632 8.41986 19.6875 8.14562 19.6875 7.8322C19.6875 7.17598 19.1489 6.66667 18.4653 6.66667C18.1235 6.66667 17.8127 6.794 17.5745 7.01927L10.4896 13.8753L3.42552 7.01927C3.18729 6.794 2.86619 6.66667 2.53474 6.66667C1.85111 6.66667 1.3125 7.17597 1.3125 7.83219C1.3125 8.14561 1.4368 8.41985 1.66467 8.63533L9.53671 16.2553C9.80602 16.5296 10.1375 16.6667 10.5 16.6667C10.8625 16.6667 11.1733 16.5296 11.4529 16.2651L19.3353 8.64512Z" fill="#E9E9F3"/>
</svg>
