<svg xmlns="http://www.w3.org/2000/svg" width="60" height="60" viewBox="0 0 60 60" fill="none">
    <circle cx="44" cy="25" r="16" fill="#FFCB4C" fill-opacity="0.8"/>
    <path d="M27.9995 19.001C34.4494 19.001 40.0075 22.8176 42.5396 28.3154C44.1777 27.4767 46.0327 27.001 47.9995 27.001C54.6268 27.001 59.9994 32.3737 59.9995 39.001C59.9995 45.6284 54.6269 51.001 47.9995 51.001H7.99951L7.5874 50.9902C3.36073 50.7758 -0.000360465 47.2809 -0.000488281 43.001C-0.000488281 38.5827 3.58123 35.001 7.99951 35.001C9.47239 35.001 10.8514 35.4004 12.0366 36.0947C12.0122 35.7333 11.9995 35.3686 11.9995 35.001C11.9995 26.1644 19.163 19.001 27.9995 19.001Z" fill="url(#paint0_linear_1_59)"/>
    <defs>
        <linearGradient id="paint0_linear_1_59" x1="-3.75049" y1="19.001" x2="73.2495" y2="51.001" gradientUnits="userSpaceOnUse">
            <stop stop-color="white"/>
            <stop offset="1" stop-color="#E0E0E0"/>
        </linearGradient>
    </defs>
</svg>